<?xml version="1.0" standalone="no"?>
<!DOCTYPE svg PUBLIC "-//W3C//DTD SVG 20010904//EN"
 "http://www.w3.org/TR/2001/REC-SVG-20010904/DTD/svg10.dtd">
<svg version="1.0" xmlns="http://www.w3.org/2000/svg"
 width="48px" height="48px" viewBox="0 0 480.000000 480.000000"
 preserveAspectRatio="xMidYMid meet">
<metadata>
Created by potrace 1.16, written by Peter Selinger 2001-2019
</metadata>
<g transform="translate(0.000000,480.000000) scale(0.100000,-0.100000)"
fill="#000000" stroke="none">
<path d="M2258 4738 l-3 -63 -327 -3 -328 -2 -1 -38 c-1 -20 -2 -41 -4 -47 -1
-5 -3 -20 -3 -32 -2 -23 -4 -23 -132 -23 l-130 0 0 -60 0 -60 -65 0 -65 0 0
-136 0 -136 -65 4 -65 3 -6 -30 c-3 -16 -3 -47 -1 -67 4 -35 2 -38 -22 -39
-26 -1 -76 -5 -98 -8 -9 -1 -13 -21 -13 -66 l0 -65 -65 0 -64 0 -3 -67 -3 -68
-62 -3 -63 -3 -1 -62 c-7 -265 -4 -453 5 -459 6 -4 37 -8 69 -8 39 0 57 -4 57
-12 0 -7 0 -127 0 -265 -1 -236 1 -253 17 -254 10 -1 29 -2 43 -4 14 -1 35 -3
48 -3 l22 -2 0 -200 0 -201 68 3 67 3 5 200 5 200 63 3 62 3 0 -71 0 -70 65 0
65 0 0 -65 0 -65 205 0 205 0 0 65 0 64 63 3 62 3 3 45 c5 89 5 90 71 90 38 0
60 4 63 13 3 6 4 94 3 195 l-2 182 59 0 c36 0 65 5 73 13 7 7 14 37 16 65 4
51 3 52 -26 57 -16 3 -50 6 -75 7 l-45 3 -3 63 -3 62 -399 0 -400 0 0 65 0 64
68 3 67 3 3 68 3 67 64 0 64 0 3 63 3 62 58 3 57 3 0 -66 0 -65 205 0 204 0 3
68 3 67 130 -4 c72 -1 189 0 262 4 l132 7 3 62 3 61 130 0 130 0 5 -65 5 -65
138 -3 137 -3 0 -64 0 -65 60 0 59 0 3 -67 3 -68 63 -3 62 -3 0 -64 0 -65
-465 0 -465 0 0 -65 0 -65 -62 -1 c-57 -1 -136 -16 -97 -18 14 -1 18 -20 24
-121 l7 -120 64 0 64 0 0 -199 0 -198 133 -9 132 -9 3 -62 3 -63 194 0 195 0
0 65 0 64 68 3 67 3 5 65 5 65 63 3 62 3 0 -206 0 -205 59 0 c90 0 86 -5 83
122 -4 141 0 160 36 157 15 -1 42 -1 60 -1 l32 2 0 730 0 730 -65 0 -65 0 0
54 c0 83 -3 86 -76 86 l-64 0 0 65 0 65 -59 0 c-58 0 -60 1 -66 30 -4 16 -5
44 -3 62 3 31 1 33 -32 36 -19 1 -50 5 -67 8 -33 5 -33 5 -33 64 l0 60 -73 0
c-41 0 -77 3 -81 7 -4 4 -28 7 -54 8 l-47 0 -5 60 -5 60 -67 3 -68 3 0 64 0
65 -205 0 -204 0 -3 -62z"/>
<path d="M2670 3665 l0 -65 65 0 65 0 0 65 0 65 -65 0 -65 0 0 -65z"/>
<path d="M2669 1138 c-1 -73 2 -192 4 -194 1 -1 55 -4 120 -7 84 -3 120 -1
122 7 5 14 15 100 22 189 l5 67 -136 0 -136 0 -1 -62z"/>
<path d="M1340 999 c0 -66 -4 -63 88 -59 40 1 42 0 42 -29 0 -20 6 -31 18 -34
16 -4 16 -5 0 -6 -18 -1 -23 -17 -12 -45 5 -13 26 -16 125 -16 88 0 119 3 120
13 3 62 7 95 13 109 5 10 9 42 9 73 l2 56 -202 -1 -203 -1 0 -60z"/>
<path d="M1992 1033 c3 -26 0 -28 -34 -31 -40 -3 -54 14 -15 20 12 2 18 6 12
9 -5 3 -25 0 -44 -6 l-35 -12 24 -13 c14 -7 41 -12 62 -12 29 2 36 -1 32 -13
-14 -35 13 -44 129 -41 62 2 149 4 195 5 l82 1 0 50 0 50 48 1 47 2 -55 7
c-30 5 -144 8 -253 9 l-198 1 3 -27z"/>
<path d="M1864 797 c-6 -17 2 -367 11 -459 l7 -68 52 0 53 0 7 103 c13 194 18
386 12 411 -6 25 -10 26 -72 26 -45 0 -66 -4 -70 -13z"/>
<path d="M2400 735 l0 -75 65 0 65 0 0 75 0 75 -65 0 -65 0 0 -75z"/>
<path d="M1200 605 l0 -65 70 0 70 0 0 59 c0 68 -4 71 -86 71 l-54 0 0 -65z"/>
<path d="M2400 135 l0 -135 66 0 66 0 -6 133 c-3 72 -5 133 -6 135 0 1 -27 2
-60 2 l-60 0 0 -135z"/>
<path d="M2804 257 c-3 -8 -4 -38 -2 -68 3 -51 4 -53 31 -52 15 1 72 1 127 2
l101 1 -3 63 -3 62 -123 3 c-98 2 -123 0 -128 -11z"/>
<path d="M2000 65 l0 -65 65 0 65 0 0 65 0 65 -65 0 -65 0 0 -65z"/>
<path d="M3330 65 l0 -65 135 0 135 0 0 65 0 65 -135 0 -135 0 0 -65z"/>
</g>
</svg>
